<svg width="124" height="44" viewBox="0 0 124 44" fill="none" xmlns="http://www.w3.org/2000/svg">
  <path d="M7.609 8.87109C9.45496 8.87109 11.257 8.89363 13.015 8.93871C14.7731 8.98379 16.5751 9.00633 18.421 9.00633C23.4315 8.93871 28.332 8.91617 33.1227 8.93871C37.9574 8.96125 115.836 9.25427 120.89 9.00633C121.725 9.00633 122.275 9.10776 122.539 9.31062C122.846 9.51348 123 9.81778 123 10.2235C123 10.7419 122.692 11.1814 122.077 11.5421C121.506 11.9253 120.693 12.1281 119.638 12.1507C113.397 12.1056 34.2655 11.7337 28.1123 11.8464C22.003 11.9816 15.8059 12.0492 9.52088 12.0492L4.44451 12.0492C4.0929 11.914 3.74129 11.7224 3.38968 11.4745C3.03807 11.2265 2.90621 10.9786 2.99412 10.7306C3.21387 10.077 3.71931 9.60364 4.51044 9.31062C5.34551 9.0176 6.37836 8.87109 7.609 8.87109Z" fill="#FF5A00"/>
  <path d="M1.3587 20.8531C1.3587 20.5422 1.4424 20.2433 1.6098 19.9563C1.77719 19.6694 2.0522 19.5259 2.43481 19.5259C2.65003 19.5259 2.82939 19.5976 2.97287 19.7411C3.11635 19.8846 3.23592 20.0639 3.33157 20.2791C3.45114 20.4705 3.55875 20.6737 3.6544 20.8889C3.75006 21.0803 3.85767 21.2357 3.97723 21.3553C4.14463 21.4987 4.43159 21.8096 4.83812 22.2879C5.26857 22.7662 5.69901 23.2683 6.12945 23.7944C6.5599 24.3205 6.95447 24.8108 7.31317 25.2651C7.67188 25.6956 7.87514 25.9586 7.92297 26.0543C7.97079 26.1021 8.04254 26.1858 8.13819 26.3054C8.23384 26.401 8.30558 26.4728 8.35341 26.5206L8.49689 26.3771C8.49689 26.3532 8.49689 26.2336 8.49689 26.0184C8.52081 25.8032 8.53276 25.564 8.53276 25.301C8.53276 25.0379 8.53276 24.7749 8.53276 24.5118C8.53276 24.2249 8.53276 23.9977 8.53276 23.8303C8.53276 21.7737 8.49689 19.7411 8.42515 17.7324C8.37732 15.6997 8.35341 13.6551 8.35341 11.5985V6.54082C8.42515 6.20604 8.56863 5.9669 8.78385 5.82342C9.02299 5.65602 9.298 5.57233 9.60887 5.57233C9.94366 5.57233 10.2665 5.64407 10.5774 5.78755C10.9122 5.93103 11.1274 6.18212 11.223 6.54082C11.1752 9.53002 11.2111 12.4714 11.3306 15.3649C11.4741 18.2585 11.5459 21.1879 11.5459 24.1531C11.5459 24.5118 11.5459 25.026 11.5459 25.6956C11.5459 26.3412 11.4861 26.9869 11.3665 27.6326C11.2709 28.2782 11.0676 28.8402 10.7567 29.3185C10.4698 29.7967 10.0393 30.0359 9.46539 30.0359C9.41756 30.0359 9.34582 30.0239 9.25017 30C9.17843 30 9.1306 30 9.10669 30C8.98712 29.9522 8.7719 29.8326 8.46102 29.6413C8.15015 29.45 7.97079 29.3065 7.92297 29.2109L2.00437 22.5748C1.71741 22.264 1.53805 21.989 1.46631 21.7498C1.39457 21.4868 1.3587 21.1879 1.3587 20.8531ZM20.5134 26.5923C20.346 26.951 20.1787 27.3456 20.0113 27.776C19.8439 28.1826 19.6526 28.5532 19.4373 28.888C19.2221 29.2228 18.9591 29.5098 18.6482 29.7489C18.3373 29.9641 17.9427 30.0717 17.4645 30.0717C16.6275 30.0717 15.934 29.8685 15.384 29.4619C14.834 29.0315 14.3796 28.5054 14.0209 27.8837C13.6861 27.238 13.447 26.5445 13.3035 25.8032C13.16 25.0619 13.0883 24.3684 13.0883 23.7227L13.3753 15.0421C13.3513 14.8747 13.3872 14.7073 13.4829 14.5399C13.6024 14.3486 13.7459 14.1812 13.9133 14.0377C14.1046 13.8703 14.3079 13.7388 14.5231 13.6431C14.7622 13.5475 14.9775 13.4997 15.1688 13.4997C15.7188 13.4997 16.1851 13.679 16.5677 14.0377C16.9503 14.3725 17.1416 14.8149 17.1416 15.3649V15.7236C16.8786 16.1541 16.6514 16.716 16.4601 17.4095C16.2688 18.103 16.1134 18.8563 15.9938 19.6694C15.8981 20.4585 15.8383 21.2716 15.8144 22.1085C15.7905 22.9455 15.8144 23.7107 15.8862 24.4042C15.9818 25.0977 16.1253 25.6956 16.3166 26.1977C16.5079 26.676 16.759 26.963 17.0699 27.0586C17.1895 27.0586 17.3688 26.9989 17.6079 26.8793C17.871 26.7597 18.146 26.5325 18.433 26.1977C18.7199 25.863 19.0188 25.3966 19.3297 24.7988C19.6406 24.1771 19.9156 23.364 20.1547 22.3596C20.3939 21.3553 20.5732 20.1357 20.6928 18.7009C20.8124 17.266 20.8482 15.5443 20.8004 13.5355C20.8961 13.2725 21.0276 13.129 21.195 13.1051C21.3863 13.0812 21.5776 13.0692 21.7689 13.0692C21.9841 13.0692 22.1635 13.0812 22.307 13.1051C22.4504 13.1051 22.6059 13.1888 22.7733 13.3562C22.8928 13.4757 23.0244 13.6551 23.1678 13.8942C23.3113 14.1334 23.3831 14.2649 23.3831 14.2888L23.9929 30.1794C23.9929 30.5381 23.8972 30.837 23.7059 31.0761C23.5146 31.3152 23.2396 31.4348 22.8809 31.4348C22.7613 31.4348 22.6178 31.4229 22.4504 31.3989C22.283 31.375 22.1156 31.3272 21.9483 31.2555C21.7809 31.1837 21.6254 31.0881 21.4819 30.9685C21.3624 30.8728 21.2906 30.7533 21.2667 30.6098L20.6569 27.0228L20.5134 26.5923ZM36.1888 28.7804C35.854 28.3021 35.567 27.6445 35.3279 26.8075C35.1127 25.9467 34.8974 25.0499 34.6822 24.1173C34.4909 23.1607 34.3116 22.2401 34.1442 21.3553C33.9768 20.4465 33.7974 19.7291 33.6061 19.203C33.4387 18.653 33.2474 18.3422 33.0322 18.2704C32.817 18.1987 32.5659 18.5215 32.2789 19.2389L29.1582 28.8522C29.0386 29.1869 28.8951 29.4261 28.7277 29.5696C28.5603 29.6891 28.2853 29.7489 27.9027 29.7489C27.7114 29.7489 27.5082 29.725 27.2929 29.6772C27.0777 29.6054 26.8744 29.5098 26.6831 29.3902C26.4918 29.2706 26.3244 29.1272 26.1809 28.9598C26.0614 28.7924 25.9896 28.6011 25.9657 28.3858C26.0375 28.0989 26.0973 27.5728 26.1451 26.8075C26.2168 26.0423 26.2646 25.1575 26.2886 24.1531C26.3125 23.1488 26.3244 22.0966 26.3244 20.9966C26.3483 19.8726 26.3483 18.8324 26.3244 17.8758C26.3244 16.8954 26.3125 16.0584 26.2886 15.3649C26.2646 14.6475 26.2407 14.1812 26.2168 13.966C26.2168 13.7268 26.2168 13.4877 26.2168 13.2486C26.2407 12.9855 26.2766 12.7464 26.3244 12.5312C26.3962 12.3159 26.5038 12.1485 26.6473 12.029C26.8147 11.8855 27.0658 11.8138 27.4005 11.8138C27.8549 11.8138 28.2734 12.0051 28.656 12.3877C29.0625 12.7703 29.2658 13.1768 29.2658 13.6073C29.2658 14.229 29.2299 14.8508 29.1582 15.4725C29.1104 16.0704 29.0864 16.6802 29.0864 17.3019C29.0864 17.6845 29.0864 18.0074 29.0864 18.2704C29.0864 18.5335 29.1343 18.8563 29.2299 19.2389C29.3017 19.0476 29.4212 18.7128 29.5886 18.2345C29.756 17.7563 29.9354 17.2541 30.1267 16.728C30.3419 16.2019 30.5332 15.7117 30.7006 15.2573C30.868 14.779 30.9876 14.4442 31.0593 14.2529C31.2267 13.7747 31.4778 13.3203 31.8126 12.8899C32.1474 12.4355 32.5898 12.1844 33.1398 12.1366C33.4985 12.1127 33.8213 12.2083 34.1083 12.4236C34.4192 12.6388 34.6822 12.9257 34.8974 13.2844C35.1127 13.6192 35.292 13.9779 35.4355 14.3605C35.579 14.7193 35.6866 15.0301 35.7583 15.2932L37.6953 24.2249L39.2019 28.3141C39.2258 28.338 39.2377 28.4098 39.2377 28.5293C39.2377 28.625 39.2377 28.6967 39.2377 28.7445C39.2377 29.0315 39.166 29.3185 39.0225 29.6054C38.9029 29.8685 38.6758 30 38.341 30C37.9345 30 37.516 29.8924 37.0855 29.6772C36.6551 29.438 36.3562 29.1391 36.1888 28.7804ZM42.5737 42.5187C42.478 42.2557 42.478 41.9568 42.5737 41.622C42.6932 41.2872 42.9204 41.072 43.2552 40.9763C43.8052 41.2154 44.3791 41.3709 44.977 41.4426C45.5748 41.5144 46.1727 41.5263 46.7705 41.4785C47.3923 41.4307 48.002 41.335 48.5999 41.1915C49.1977 41.0481 49.7716 40.8807 50.3217 40.6893C50.8717 40.235 51.2543 39.6372 51.4695 38.8958C51.6847 38.1784 51.7684 37.186 51.7206 35.9186C51.6728 34.6751 51.5054 33.1088 51.2184 31.2196C50.9554 29.3543 50.6086 27.0586 50.1782 24.3325C50.1782 24.2608 50.1782 24.1531 50.1782 24.0097C50.2021 23.8662 50.2021 23.7347 50.1782 23.6151C50.1543 23.4716 50.1064 23.364 50.0347 23.2923C49.9869 23.2205 49.9151 23.2205 49.8195 23.2923C49.5086 23.8901 49.1379 24.5477 48.7075 25.2651C48.301 25.9586 47.8227 26.6162 47.2727 27.238C46.7466 27.8358 46.1487 28.338 45.4792 28.7445C44.8335 29.1511 44.1041 29.3543 43.2911 29.3543C42.5737 29.3543 41.94 29.1511 41.39 28.7445C40.8639 28.3141 40.6008 27.7043 40.6008 26.9152C40.6008 26.3173 40.7204 25.564 40.9595 24.6553C41.2226 23.7466 41.5693 22.7901 41.9997 21.7857C42.4302 20.7574 42.9324 19.7411 43.5063 18.7367C44.0802 17.7324 44.6781 16.8236 45.2998 16.0106C45.9216 15.1975 46.5553 14.5399 47.2009 14.0377C47.8466 13.5116 48.4684 13.2486 49.0662 13.2486C49.3053 13.2486 49.6162 13.2964 49.9988 13.3921C50.4054 13.4638 50.788 13.5834 51.1467 13.7508C51.5293 13.9181 51.8521 14.1095 52.1152 14.3247C52.4021 14.5399 52.5456 14.791 52.5456 15.078V17.9834L54.8772 34.9142C54.8772 35.8708 54.8533 36.7795 54.8054 37.6404C54.7815 38.5252 54.6261 39.3382 54.3391 40.0796C54.0761 40.8209 53.6456 41.4785 53.0478 42.0524C52.45 42.6263 51.5891 43.0927 50.4651 43.4514C50.3217 43.5231 50.0227 43.5829 49.5684 43.6307C49.114 43.6785 48.5879 43.7144 47.9901 43.7383C47.4162 43.7622 46.7944 43.7622 46.1248 43.7383C45.4792 43.7144 44.8813 43.6546 44.3313 43.559C43.8052 43.4872 43.3748 43.3677 43.04 43.2003C42.7052 43.0329 42.5498 42.8057 42.5737 42.5187ZM48.1694 16.441C47.9303 16.7041 47.6075 17.1226 47.2009 17.6965C46.8183 18.2704 46.4238 18.9041 46.0172 19.5976C45.6107 20.2911 45.2042 21.0205 44.7976 21.7857C44.415 22.527 44.1041 23.2205 43.865 23.8662C43.6259 24.5118 43.4704 25.0619 43.3987 25.5162C43.3509 25.9706 43.4585 26.2456 43.7215 26.3412C44.2237 26.0782 44.7618 25.6477 45.3357 25.0499C45.9096 24.4281 46.4477 23.7466 46.9499 23.0053C47.4759 22.2401 47.9303 21.4629 48.3129 20.6737C48.7195 19.8607 48.9945 19.1313 49.1379 18.4856C49.3053 17.84 49.3173 17.3258 49.1738 16.9432C49.0542 16.5367 48.7195 16.3693 48.1694 16.441ZM56.025 27.4891C56.025 26.4847 56.049 25.5043 56.0968 24.5477C56.1446 23.5912 56.1685 22.6107 56.1685 21.6064C56.0968 18.8802 56.0729 16.2138 56.0968 13.6073C56.1207 10.9768 56.0011 8.28651 55.7381 5.53646C55.7381 5.0821 55.8457 4.78318 56.0609 4.6397C56.2761 4.4723 56.599 4.38861 57.0294 4.38861C57.5794 4.38861 58.0457 4.556 58.4283 4.89079C58.8349 5.20167 59.0501 5.64407 59.074 6.21799C59.0262 9.61371 59.0621 12.9855 59.1816 16.3334C59.3251 19.6574 59.3968 23.0292 59.3968 26.4488V29.2109C59.2534 29.4022 59.0501 29.5935 58.7871 29.7848C58.524 29.9761 58.261 30.0478 57.9979 30C57.3044 29.8804 56.8022 29.6054 56.4914 29.175C56.1805 28.7206 56.025 28.1587 56.025 27.4891ZM62.9121 28.6369C62.673 26.2456 62.4697 24.201 62.3023 22.5031C62.1349 20.8052 61.9915 19.3824 61.8719 18.2345C61.7523 17.0867 61.6447 16.178 61.5491 15.5084C61.4773 14.8149 61.4175 14.3008 61.3697 13.966C61.3219 13.6073 61.286 13.3681 61.2621 13.2486C61.2382 13.129 61.2262 13.0573 61.2262 13.0333V12.8899C61.2262 12.6268 61.3338 12.4116 61.5491 12.2442C61.7882 12.0529 62.0273 11.9572 62.2665 11.9572C62.6252 11.9572 63.0078 12.017 63.4143 12.1366C63.8448 12.2562 64.1317 12.5073 64.2752 12.8899C64.4904 14.0616 64.6339 15.2454 64.7057 16.441C64.8013 17.6367 64.873 18.8324 64.9209 20.0281C64.9926 21.1998 65.0763 22.3835 65.172 23.5792C65.2915 24.7749 65.4948 25.9586 65.7818 27.1304C65.7818 27.1782 65.7937 27.2739 65.8176 27.4173C65.8655 27.5608 65.9013 27.7163 65.9252 27.8837C65.9731 28.051 66.0089 28.2065 66.0329 28.35C66.0568 28.4934 66.0687 28.5891 66.0687 28.6369V28.7087C66.0687 28.7326 66.0807 28.7565 66.1046 28.7804C66.1046 29.0674 65.9731 29.3543 65.71 29.6413C65.447 29.9283 65.172 30.0478 64.885 30C64.8133 29.9761 64.6339 29.9402 64.3469 29.8924C64.0839 29.8206 63.9045 29.7609 63.8089 29.713C63.7372 29.6891 63.6415 29.6413 63.5219 29.5696C63.4024 29.4739 63.2828 29.3782 63.1632 29.2826C63.0676 29.1869 62.9839 29.0793 62.9121 28.9598C62.8404 28.8402 62.8404 28.7326 62.9121 28.6369ZM60.9034 2.48748C60.9034 2.32009 61.0349 2.1766 61.298 2.05704C61.5849 1.91356 61.8002 1.84182 61.9436 1.84182C62.3023 1.84182 62.6969 1.94943 63.1274 2.16465C63.5817 2.35596 63.8089 2.65488 63.8089 3.06141C63.8089 3.46794 63.7491 3.74294 63.6295 3.88642C63.5339 4.0299 63.2828 4.10164 62.8763 4.10164C62.4458 4.10164 62.0034 3.95816 61.5491 3.6712C61.1186 3.38424 60.9034 2.98967 60.9034 2.48748Z" fill="#FF5A00"/>
  <path d="M83.7272 17.7324L83.5837 17.5889C83.4402 18.1628 83.3565 18.7367 83.3326 19.3107C83.3087 19.8846 83.2848 20.4705 83.2608 21.0683C83.2608 21.2596 83.2489 21.5824 83.225 22.0368C83.225 22.4912 83.213 22.9814 83.1891 23.5075C83.1652 24.0097 83.1413 24.4999 83.1174 24.9782C83.1174 25.4325 83.1174 25.7434 83.1174 25.9108C83.0456 26.1977 82.8902 26.4488 82.651 26.6641C82.4119 26.8793 82.1369 26.9869 81.826 26.9869C81.7065 26.9869 81.551 26.9749 81.3597 26.951C81.1923 26.9032 81.013 26.8554 80.8217 26.8075C80.6543 26.7358 80.4869 26.6521 80.3195 26.5565C80.176 26.4608 80.0923 26.3532 80.0684 26.2336L77.8086 18.3063L76.1585 11.8138C76.1346 11.7898 76.0868 11.7061 76.015 11.5627C75.9433 11.4192 75.8716 11.2637 75.7998 11.0964C75.7281 10.905 75.6563 10.7257 75.5846 10.5583C75.5368 10.3909 75.5129 10.2594 75.5129 10.1637C75.5129 9.82894 75.6683 9.56589 75.9792 9.37458C76.314 9.15936 76.6129 9.05175 76.8759 9.05175C77.7607 9.05175 78.3227 9.42241 78.5618 10.1637L80.5347 17.3019C80.6543 17.2541 80.726 17.1226 80.7499 16.9073C80.7977 16.6921 80.8217 16.5606 80.8217 16.5128C80.8217 16.4889 80.8336 16.3693 80.8575 16.1541C80.9054 15.9388 80.9771 15.5682 81.0728 15.0421C81.1684 14.4921 81.2999 13.7508 81.4673 12.8181C81.6586 11.8855 81.9097 10.6898 82.2206 9.2311C82.4119 8.99196 82.6391 8.83652 82.9021 8.76478C83.1652 8.66913 83.4641 8.6213 83.7989 8.6213C84.1098 8.6213 84.3489 8.66913 84.5163 8.76478C84.7076 8.86044 84.8391 9.07566 84.9109 9.41045L87.3501 19.6694C87.3979 19.7889 87.4457 19.9204 87.4935 20.0639C87.5414 20.2074 87.5892 20.3389 87.637 20.4585C87.7327 19.6694 87.8164 18.9759 87.8881 18.378C87.9599 17.7563 88.0316 17.1584 88.1033 16.5845C88.1751 15.9867 88.2468 15.3649 88.3186 14.7193C88.3903 14.0497 88.4859 13.2844 88.6055 12.4236C88.7251 11.5627 88.8686 10.5463 89.036 9.37458C89.2034 8.20282 89.4066 6.80387 89.6458 5.17775C89.7175 4.69948 89.9208 4.40056 90.2556 4.281C90.6143 4.16143 91.0088 4.10164 91.4393 4.10164C91.4632 4.10164 91.511 4.12556 91.5828 4.17338C91.6784 4.1973 91.7382 4.22121 91.7621 4.24513C91.8099 4.26904 91.9056 4.29295 92.0491 4.31687C92.1925 4.34078 92.2882 4.36469 92.336 4.38861C92.4317 4.60383 92.5154 4.79514 92.5871 4.96253C92.6589 5.10601 92.6947 5.27341 92.6947 5.46472C92.6469 5.22558 92.5632 5.33319 92.4436 5.78755C92.3241 6.24191 92.1686 6.98322 91.9773 8.01151C91.8099 9.03979 91.6186 10.3192 91.4034 11.8496C91.2121 13.3562 91.0208 15.066 90.8295 16.9791C90.6382 18.8683 90.4588 20.9248 90.2914 23.1488C90.1479 25.3488 90.0284 27.6326 89.9327 30C89.861 30 89.7414 29.988 89.574 29.9641C89.4066 29.9402 89.2273 29.9043 89.036 29.8565C88.8686 29.8087 88.7131 29.7489 88.5696 29.6772C88.4262 29.6054 88.3305 29.5098 88.2827 29.3902L83.7272 17.7324ZM94.3806 9.69741C94.5719 9.43436 94.7393 9.26697 94.8828 9.19523C95.0502 9.09957 95.2774 9.05175 95.5644 9.05175C95.947 9.05175 96.3057 9.15936 96.6405 9.37458C96.9992 9.5898 97.2024 9.90068 97.2503 10.3072C97.3459 10.9768 97.3937 11.6583 97.3937 12.3518C97.4177 13.0214 97.4177 13.7029 97.3937 14.3964C97.3937 15.066 97.3818 15.7475 97.3579 16.441C97.3579 17.1106 97.3818 17.7802 97.4296 18.4498C97.5253 20.0759 97.6687 21.7618 97.8601 23.5075C98.0753 25.2532 98.1829 26.9391 98.1829 28.5652C98.1829 29.0435 98.0872 29.4022 97.8959 29.6413C97.7046 29.8804 97.334 30 96.7839 30C96.3296 30 95.9828 29.8446 95.7437 29.5337C95.5046 29.2228 95.3252 28.8522 95.2057 28.4217C95.11 27.9913 95.0502 27.5608 95.0263 27.1304C95.0024 26.676 94.9904 26.3173 94.9904 26.0543C94.9904 25.863 94.9665 25.4684 94.9187 24.8705C94.8948 24.2488 94.8589 23.5314 94.8111 22.7183C94.7872 21.8814 94.7513 21.0085 94.7035 20.0998C94.6556 19.1672 94.6078 18.2943 94.56 17.4813C94.5122 16.6443 94.4643 15.9269 94.4165 15.329C94.3926 14.7073 94.3806 14.3008 94.3806 14.1095V11.8855V9.69741ZM99.9047 25.5162C99.9047 24.0575 99.9286 22.5988 99.9764 21.14C100.048 19.6574 100.12 18.1867 100.192 16.728C100.263 15.2454 100.311 13.7747 100.335 12.3159C100.383 10.8333 100.383 9.36262 100.335 7.9039C100.407 7.64085 100.538 7.44954 100.73 7.32997C100.921 7.18649 101.148 7.11475 101.411 7.11475C101.913 7.11475 102.296 7.2104 102.559 7.40171C102.822 7.56911 103.013 7.80824 103.133 8.11912C103.253 8.42999 103.324 8.77674 103.348 9.15936C103.372 9.54197 103.396 9.92459 103.42 10.3072C103.707 10.8333 104.042 11.3474 104.424 11.8496C104.831 12.3279 105.19 12.8181 105.5 13.3203C105.5 13.3442 105.512 13.404 105.536 13.4997C105.584 13.5714 105.62 13.6073 105.644 13.6073C105.787 13.8225 105.967 14.1095 106.182 14.4682C106.421 14.803 106.648 15.1377 106.863 15.4725C107.079 15.7834 107.258 16.0584 107.402 16.2975C107.569 16.5367 107.653 16.6562 107.653 16.6562L107.796 16.8356L109.877 19.8487C109.972 19.9444 110.056 19.9922 110.128 19.9922H110.199C109.889 17.4574 109.637 14.8747 109.446 12.2442C109.255 9.5898 109.159 6.97127 109.159 4.38861V2.59509C109.351 2.28422 109.673 2.12878 110.128 2.12878C110.582 2.12878 110.917 2.23639 111.132 2.45161C111.347 2.66683 111.491 2.94184 111.563 3.27663C111.634 3.5875 111.67 3.93425 111.67 4.31687C111.67 4.67557 111.682 5.01036 111.706 5.32123C111.706 5.34515 111.718 5.39298 111.742 5.46472C111.766 5.51254 111.79 5.64407 111.814 5.85929C111.861 6.0506 111.897 6.36147 111.921 6.79192C111.969 7.19845 112.017 7.77237 112.065 8.51369C112.136 9.25501 112.196 10.1876 112.244 11.3116C112.316 12.4355 112.399 13.8105 112.495 15.4367V16.0823L113.715 24.0814C113.739 24.2727 113.834 24.5716 114.002 24.9782C114.193 25.3608 114.289 25.6597 114.289 25.8749C114.289 26.3771 114.145 26.7836 113.858 27.0945C113.571 27.4054 113.165 27.5608 112.639 27.5608C112.567 27.5608 112.471 27.5369 112.352 27.4891C112.232 27.4173 112.113 27.3456 111.993 27.2739C111.873 27.2021 111.754 27.1304 111.634 27.0586C111.539 26.963 111.467 26.8912 111.419 26.8434L105.644 18.6291C105.62 18.6291 105.596 18.5932 105.572 18.5215C105.548 18.4259 105.524 18.3541 105.5 18.3063C105.357 18.0911 105.166 17.828 104.927 17.5171C104.687 17.1823 104.46 16.8595 104.245 16.5486C104.03 16.2138 103.838 15.9269 103.671 15.6878C103.504 15.4486 103.42 15.3171 103.42 15.2932L103.241 15.1497C103.121 17.4215 103.025 19.7172 102.954 22.0368C102.882 24.3325 102.882 26.6282 102.954 28.9239C102.906 29.2109 102.75 29.4619 102.487 29.6772C102.248 29.8924 101.997 30 101.734 30C101.256 30 100.873 29.8804 100.586 29.6413C100.323 29.3782 100.096 29.0435 99.9047 28.6369V25.5162Z" fill="white"/>
</svg>
